<svg viewBox="0 0 64 64" xmlns="http://www.w3.org/2000/svg"><path d="M10 18v1h2v-2h-1a1 1 0 0 0-1 1zm0 19.474h2v2.053h-2zm0-4.106h2v2.053h-2zm0 12.317h2v2.053h-2zm0-4.106h2v2.053h-2zm0-12.315h2v2.052h-2zm0 24.631h2v2.053h-2zm0-28.737h2v2.053h-2zm0 24.632h2v2.052h-2zm0-28.737h2v2.053h-2zM10 59a1 1 0 0 0 1 1h1v-2h-2zm8-1h2v2h-2zm4 0h2v2h-2zm8 0h2v2h-2zm4 0h2v2h-2zm-8 0h2v2h-2zm-12 0h2v2h-2zm24 2h1a1 1 0 0 0 1-1v-1h-2zm0-5h2v2h-2zM13 17h2v2h-2zm38.934-.326a.948.948 0 0 0-.033-.094 1.013 1.013 0 0 0-.191-.284l-11-11a.971.971 0 0 0-.286-.192.779.779 0 0 0-.085-.031.982.982 0 0 0-.278-.056C40.035 5.01 40.019 5 40 5H23a1 1 0 0 0-1 1v5h-5a1 1 0 0 0-1 1v41a1 1 0 0 0 1 1h28a1 1 0 0 0 1-1v-5h5a1 1 0 0 0 1-1V17c0-.022-.011-.04-.012-.062a.992.992 0 0 0-.054-.264zM41 8.414L48.586 16H41zM44 52H18V13h4v34a1 1 0 0 0 1 1h21zm6-6H24V7h15v10a1 1 0 0 0 1 1h10z"/><path d="M30 29a7 7 0 1 0 7-7 7.008 7.008 0 0 0-7 7zm12 0a5 5 0 1 1-5-5 5.006 5.006 0 0 1 5 5z"/><path d="M36 26v2h-2v2h2v2h2v-2h2v-2h-2v-2h-2z"/></svg>