<svg xmlns="http://www.w3.org/2000/svg" xmlns:xlink="http://www.w3.org/1999/xlink" width="81.7" height="22" viewBox="0 0 81.7 22"><style>.st0{fill:#333}.st1,.st2{clip-path:url(#SVGID_2_);fill:#333}.st2{fill:#ffb800}.st3{clip-path:url(#SVGID_4_);fill:url(#SVGID_5_)}.st4{clip-path:url(#SVGID_7_);fill:#ffb800}.st5,.st6{clip-path:url(#SVGID_9_);fill:#333}.st6{fill:#ffb800}.st7{clip-path:url(#SVGID_11_);fill:url(#SVGID_12_)}.st8{clip-path:url(#SVGID_14_);fill:#ffb800}</style><path class="st0" d="M0 3.6v.7h2.3v6.1h1V4.3h2.3v-.7z"/><defs><path id="SVGID_1_" d="M0 0h77v21.7H0z"/></defs><clipPath id="SVGID_2_"><use xlink:href="#SVGID_1_" overflow="visible"/></clipPath><path class="st1" d="M12.1 5.4v3.2c0 .4-.1.7-.3.9-.2.3-.4.4-.7.6l-.9.3c-.3.1-.6.1-1 .1-1.9 0-2.8-.6-2.8-1.8V5.4c0-1.3.9-1.9 2.8-1.9s2.9.6 2.9 1.9m-1 3.2V5.4c0-.8-.6-1.3-1.9-1.3h-.7c-.2 0-.4.1-.6.2-.2.2-.3.3-.4.5-.1.1-.2.3-.2.6v3.2c0 .8.6 1.2 1.9 1.2 1.3 0 1.9-.4 1.9-1.2m7.2-3.7v1.4c0 .6-.2 1-.7 1.2-.4.2-1.1.4-1.9.4h-1v2.4h-1V3.6h2.9c.2 0 .4 0 .6.1.2.1.4.1.5.2.2.1.3.3.4.4.1.2.2.4.2.6m-1 1.4V5.1c0-.2 0-.3-.1-.5-.1-.1-.2-.2-.4-.3-.2 0-.3-.1-.5-.1h-1.6v3.1h1.2c.4 0 .7-.1 1-.2.2-.2.4-.4.4-.8m7.1 4.1h-5.2v-.7l4-5.4h-3.9v-.7h5v.7l-4 5.4h4.1zm7.1 0h-1.1l-.8-2.1h-2.9l-.7 2.1h-1l2.7-6.8h1.2l2.6 6.8zm-2.1-2.8l-1.2-3.1h-.1L27 7.6h2.4zm4.1 2.8h-1V3.6h1v6.8zm4.6 0h-1.3l-3.2-3.6 3-3.2h1.2l-3.1 3.1 3.4 3.7zm6.6 0h-1.1l-.8-2.1h-2.9l-.8 2.1h-1l2.7-6.8H42l2.7 6.8zm-2.1-2.8l-1.2-3.1h-.1l-1.2 3.1h2.5z"/><path class="st2" d="M50.9 10.4h-5.7v-1l3.6-4.6h-3.5V3.6h5.5v1l-3.5 4.6h3.6zm6.4 0h-5.7v-1l3.6-4.6h-3.4V3.6h5.4v1l-3.5 4.6h3.6z"/><path class="st1" d="M37.1 15.7c-.1.2-1.1 1.7-1.8 2.2-.1.1-.2.1-.3.2h-.2s-.1 0-.1-.1c-.1-.2-.1-.2-.3-.3-.2-.2 0-.5 0-.5.1-.2 2.2-4.8 2.2-4.8s.2-.5.3-.6h.2c.1.1.2.2.2.3 0 .1.1.1.1.2v.3c-.1.2-1.4 2.9-1.5 3-.1.2-.2.4-.3.7-.1.4-.3.8-.4 1.2 0 .1 2.1-2.1 1.9-1.8"/><path class="st1" d="M39.1 16.8c-.1.2-.3.5-.5.7-.3.3-.8.7-1.2.7 0 0-.9-.3-1-.8-.1-.5.2-1.1.4-1.5.1-.4.3-.7.5-1 .1-.2.2-.6.4-.7.2-.2.5 0 .7.2 0 .1.1.2.1.3 0 0 0 .1.1.1h.4l.3.3s.1.6 0 .9c0 .1-.1.5 0 .5l.9-.3v.1c-.3.2-.6.5-1.1.5m-.5 0c-.6-.2-.8-.7-.8-1.2-.2.3-.4.6-.5.9-.1.2-.3.7-.1.9.1.2.3.4.5.3.5-.2.8-.5.9-.9.1.1.1 0 0 0m-.2-1.5c-.1.3-.2.7.1 1 .1.1.2.1.3.1.1 0 .1-.2.2-.3v-.5c-.1-.2-.3-.9-.6-.3"/><path class="st1" d="M43.2 15.7c-.3.7-.4 1.1-.7 1.9-.3.6-.5 1.2-.9 1.7-.2.4-.6.9-1 .8-.7-.2-.9-1-1.1-1.5 0-.1.1-.2.2-.1h.1c.1.1.2.3.3.5.1.1.1.3.2.4.2.2.4-.2.5-.4.6-.9 1-1.8 1.4-2.7-.4.4-1.1 1-1.4 1.4h-.2c-.1 0-.3-.1-.3-.2-.1-.1-.4-.4-.3-.7.1-.5.4-.9.6-1.3.1-.3.3-.6.5-.9.4-.3.9-.4 1.4-.4h.1c.1.1.2.2.3.4.1.1.1.3.2.4-.3-.1-.6-.5-.9-.4-.1.1-.2.2-.3.4v.1c-.3.5-.6 1.1-.9 1.7 0 .1-.1.1-.1.2.2-.1.4-.3.4-.4.1-.1.7-.6 1-1 .1-.2.2-.4.3-.4.2-.1.3.2.5.3l.1.1c.1 0 .1 0 0 .1m1 2.2c-.1.1-.2.1-.3.2h-.2c-.1 0-.1 0-.1-.1-.1-.2-.1-.2-.3-.3-.2-.2 0-.5 0-.5.1-.2 1.1-2.3 1.1-2.3s.2-.5.3-.6h.2c.1.1.2.2.2.3.1.1.1.1.1.2v.3c-.1.2-.3.4-.4.5-.1.2-.2.4-.3.7-.1.4-.3.8-.4 1.2.1.1 2.2-2.1 2-1.8-.3.2-1.2 1.6-1.9 2.2m.8-4.2c-.1-.3.1-.7.2-.9 0-.1.1-.1.1 0 0-.1 0-.1.1-.1.2.1.5.3.5.6 0 .1-.1.2-.2.2-.1.1-.2.2-.3.4-.1.2-.3.1-.4-.2"/><path class="st1" d="M47.3 16.3c.1.4 0 .7-.1 1.1-.2.6-.9.9-1.5.8-.7-.1-.9-.8-.5-1.4.3-.4.7-.7 1.2-1-.1-.6 0-1.2.3-1.6l.1-.2c.1-.2.3-.4.5-.5h.1c.3.1.4.4.5.7v.1s0 .1-.1.1c-.3.2-.6.4-.7.7v.3c.2 0 .9 0 .9.1-.2 0-.7.1-.8.1-.1 0 0 .1 0 .1 0 .3.1.4.1.6m-.8 0c0-.1 0-.1-.1-.2h-.2c-.4.2-1.1.7-.9 1.3.1.2.4.3.6.3.2 0 .4-.1.6-.2.4-.4.2-.9 0-1.2"/><path class="st1" d="M50.5 15.7c-.1.2-1.1 1.7-1.8 2.2-.1.1-.2.1-.3.2h-.2s-.1 0-.1-.1c-.1-.2-.1-.2-.3-.3-.2-.2 0-.5 0-.5 0-.1 1-2.2 1.6-3.6h-.9c-.2 0-.2-.2 0-.2h1l.5-1s.2-.5.3-.6h.2c.1.1.2.2.2.3 0 .1.1.1.1.2v.3l-.4.8h1.4c.1 0 .1.2 0 .2h-1.5c-.4.8-.9 1.9-1 2-.1.2-.2.4-.3.7-.1.4-.3.8-.4 1.2-.1.1 2-2.1 1.9-1.8"/><path class="st1" d="M50.5 17.9c-.1.1-.2.1-.3.2H50c-.1 0-.1 0-.1-.1-.1-.2-.1-.2-.3-.3-.2-.2 0-.5 0-.5.1-.2 1.1-2.3 1.1-2.3s.2-.5.3-.6h.2c.1.1.2.2.2.3.1.1.1.1.1.2v.3c-.1.2-.3.4-.4.5-.1.2-.2.4-.3.7-.1.4-.3.8-.4 1.2.1.1 2.2-2.1 2-1.8-.2.2-1.2 1.6-1.9 2.2.1 0 0 0 0 0m.9-4.2c-.1-.3.1-.7.2-.9 0-.1.1-.1.1 0 0-.1 0-.1.1-.1.2.1.5.3.5.6 0 .1-.1.2-.2.2-.1.1-.2.2-.3.4-.1.2-.4.1-.4-.2"/><path class="st1" d="M54.9 16.2c-.4.4-.8.7-1.2 1-.3.2-.7.6-1.1.7-.2 0-.3 0-.4-.1-1.4-1.1.2-2.6 1-3.6l.1-.1h.2c.1.1.3.3.5.4l.1.1c.1-.1.1-.2.2-.3.1-.1.2-.2.3-.1.1.1.2.2.1.3-.2.2-.3.4-.3.7 0 .1-.1.1-.2.2s-.4 0-.4-.2c0-.5-.4-.2-.6 0-.1.1-.2.3-.3.4-.1.3-.3.7-.4 1.1 0 .1 0 .2.1.4 0 .1.1.2.2.1.3 0 1.1-.5 1.1-.6.2-.1.5-.3.7-.5.2 0 .3 0 .3.1"/><path class="st1" d="M56.6 16.3c.1.4 0 .7-.1 1.1-.2.6-.9.9-1.5.8-.7-.1-.9-.8-.5-1.4.3-.4.7-.7 1.2-1-.1-.6 0-1.2.3-1.6l.1-.2c.1-.2.3-.4.5-.5h.1c.3.1.4.4.5.7v.1s0 .1-.1.1c-.3.2-.6.4-.7.7v.3c.2 0 .9 0 .9.1-.2 0-.7.1-.8.1-.1 0 0 .1 0 .1 0 .3 0 .4.1.6m-.8 0c0-.1 0-.1-.1-.2h-.2c-.4.2-1.1.7-.9 1.3.1.2.4.3.6.3.2 0 .4-.1.6-.2.3-.4.1-.9 0-1.2"/><defs><path id="SVGID_3_" d="M64.6 11l-6.3 10.7h12.4L77 11z"/></defs><clipPath id="SVGID_4_"><use xlink:href="#SVGID_3_" overflow="visible"/></clipPath><linearGradient id="SVGID_5_" gradientUnits="userSpaceOnUse" y1="21.741" x2="1" y2="21.741" gradientTransform="scale(14.9601 -14.9601) rotate(59.092 22.552 14.047)"><stop offset="0" stop-color="#ffb800"/><stop offset=".617" stop-color="#ca7334"/><stop offset="1" stop-color="#ca7334"/></linearGradient><path class="st3" d="M53.6 18.9l9.6-16.1 18.5 11L72 30z"/><defs><path id="SVGID_6_" d="M0 0h77v21.7H0z"/></defs><clipPath id="SVGID_7_"><use xlink:href="#SVGID_6_" overflow="visible"/></clipPath><path class="st4" d="M77 11l-6.4 10.7L58.3 0h12.4z"/></svg>